<?xml version="1.0" encoding="utf-8"?>
<!-- Generator: Adobe Illustrator 23.1.1, SVG Export Plug-In . SVG Version: 6.00 Build 0)  -->
<svg version="1.1" id="Ebene_1" xmlns="http://www.w3.org/2000/svg" xmlns:xlink="http://www.w3.org/1999/xlink" x="0px" y="0px"
	 viewBox="0 0 700 700" style="enable-background:new 0 0 700 700;" xml:space="preserve">
<path d="M358.4,466.2V257.1l50.7,58.7c3,3.5,8.3,3.9,11.8,0.9c3.5-3,3.9-8.3,0.9-11.8l-66.1-76.6c-1.6-1.8-3.9-2.9-6.3-2.9
	c-2.4,0-4.7,1-6.3,2.8L298.6,278l-20.7,26.1c-1.2,1.5-1.8,3.4-1.8,5.2c0,2.5,1.1,4.9,3.2,6.6c3.6,2.9,8.9,2.3,11.8-1.4l20.3-25.8
	l30.2-33.8v211.2c0,4.6,3.8,8.4,8.4,8.4C354.7,474.6,358.4,470.9,358.4,466.2L358.4,466.2z"/>
</svg>
