<svg xmlns="http://www.w3.org/2000/svg" viewBox="0 0 265.79 346.34"><defs><style>.cls-1{fill:#010101;fill-rule:evenodd;}</style></defs><title>Element 1</title><g id="Ebene_2" data-name="Ebene 2"><g id="Ebene_1-2" data-name="Ebene 1"><path class="cls-1" d="M132.9,0C110.16,0,90.46,15,79.25,36.92a63.54,63.54,0,1,0-29.49,123.6V342.31h0a4,4,0,0,0,4,4H212a4,4,0,0,0,4-4V160.53A63.54,63.54,0,1,0,186.54,36.92C175.33,15,155.64,0,132.9,0Zm0,8.05c20.1,0,37.95,13.86,47.84,35.33a4,4,0,0,0,4.85,2.17,55.5,55.5,0,1,1,25.75,107.69,4,4,0,0,0-3.36,4v140.9H170v-34a4,4,0,1,0-8,0v34h-25V245.29a4,4,0,0,0-6.9-2.89,4.05,4.05,0,0,0-1.16,2.89v52.82h-25v-34h0a4,4,0,1,0-8.05,0v34h-38V157.21h0a4,4,0,0,0-3.37-4A55.48,55.48,0,1,1,80.2,45.55a4,4,0,0,0,4.85-2.17C94.94,21.91,112.79,8.05,132.9,8.05ZM57.81,306.16H208v32.12H57.81Z"/></g></g></svg>